ffmpeg started on 2026-03-28 at 15:52:24
Report written to "D:\Convert\FFMetrics\reports\psnr_report-6.txt"
Log level: 32
Command line:
ffmpeg -hide_banner -nostdin -r 24000/1001 -i "F:\\\xc0\xed\xe8\xec\xe5\\\xce\xed\xe3\xee\xe8\xed\xe3\xe8\\!_40_\xce\xf1\xe5\xed\xfc_2025\\JamClub\\\xcc\xeb\xe0\xe4\xf8\xe0\xff \xf1\xe5\xf1\xf2\xf0\xe0 \xec\xee\xe5\xe3\xee \xe4\xf0\xf3\xe3\xe0 \xe4\xee\xf1\xe0\xe6\xe4\xe0\xe5\xf2\\JamClub_Tomodachi_no_Imouto_ga_Ore_ni_dake_Uzai_03_1080p_HEVC.mkv" -r 24000/1001 -i "F:\\\xc0\xed\xe8\xec\xe5\\\xce\xed\xe3\xee\xe8\xed\xe3\xe8\\!_40_\xce\xf1\xe5\xed\xfc_2025\\JamClub\\\xcc\xeb\xe0\xe4\xf8\xe0\xff \xf1\xe5\xf1\xf2\xf0\xe0 \xec\xee\xe5\xe3\xee \xe4\xf0\xf3\xe3\xe0 \xe4\xee\xf1\xe0\xe6\xe4\xe0\xe5\xf2\\JamClub_Tomodachi_no_Imouto_ga_Ore_ni_dake_Uzai_03_1080p.mp4" -lavfi "[0:v]settb=AVTB,setpts=PTS-STARTPTS,format=pix_fmts=yuv420p10le,fps=24000/1001,scale=1920:1080:flags=lanczos:param0=3:out_range=limited:out_color_matrix=bt709:out_chroma_loc=left,setsar=1/1,setdar=(1920/1080)*(1/1),colorspace=format=yuv420p10:range=tv:primaries=bt709:trc=bt709:space=bt709:fast=0[main];[1:v]settb=AVTB,setpts=PTS-STARTPTS,format=pix_fmts=yuv420p,fps=24000/1001,scale=1920:1080:flags=lanczos:param0=3:out_range=limited:out_color_matrix=bt709:out_chroma_loc=left,setsar=1/1,setdar=(1920/1080)*(1/1),colorspace=format=yuv420p:range=tv:primaries=bt709:trc=bt709:space=bt709:fast=0[ref];[main][ref]psnr=eof_action=endall:stats_file='D\\:/Convert/FFMetrics/logs/psnr_logfile-6.txt'" -f null -
Input #0, matroska,webm, from 'F:\Аниме\Онгоинги\!_40_Осень_2025\JamClub\Младшая сестра моего друга досаждает\JamClub_Tomodachi_no_Imouto_ga_Ore_ni_dake_Uzai_03_1080p_HEVC.mkv':
  Metadata:
    COMPATIBLE_BRANDS: isomiso2avc1mp41
    MAJOR_BRAND     : isom
    MINOR_VERSION   : 512
    ENCODER         : Lavf61.7.100
  Duration: 00:23:49.49, start: -0.021000, bitrate: 1124 kb/s
  Stream #0:0: Video: hevc (Main 10), yuv420p10le(tv, bt709, progressive), 1920x1080 [SAR 1:1 DAR 16:9], 23.98 fps, 23.98 tbr, 1k tbn (default)
      Metadata:
        HANDLER_NAME    : VideoHandler
        VENDOR_ID       : [0][0][0][0]
        ENCODER         : Lavc61.19.100 libx265
        BPS             : 929205
        DURATION        : 00:23:49.386708333
        NUMBER_OF_FRAMES: 34271
        NUMBER_OF_BYTES : 166024141
        _STATISTICS_WRITING_APP: mkvpropedit v94.0 ('Initiate') 64-bit
        _STATISTICS_WRITING_DATE_UTC: 2026-03-28 10:05:01
        _STATISTICS_TAGS: BPS DURATION NUMBER_OF_FRAMES NUMBER_OF_BYTES
  Stream #0:1(eng): Audio: aac (LC), 48000 Hz, stereo, fltp (default)
      Metadata:
        HANDLER_NAME    : SoundHandler
        VENDOR_ID       : [0][0][0][0]
        ENCODER         : Lavc61.19.100 aac
        BPS             : 191760
        DURATION        : 00:23:49.464000000
        NUMBER_OF_FRAMES: 67007
        NUMBER_OF_BYTES : 34264364
        _STATISTICS_WRITING_APP: mkvpropedit v94.0 ('Initiate') 64-bit
        _STATISTICS_WRITING_DATE_UTC: 2026-03-28 10:05:01
        _STATISTICS_TAGS: BPS DURATION NUMBER_OF_FRAMES NUMBER_OF_BYTES
Input #1, mov,mp4,m4a,3gp,3g2,mj2, from 'F:\Аниме\Онгоинги\!_40_Осень_2025\JamClub\Младшая сестра моего друга досаждает\JamClub_Tomodachi_no_Imouto_ga_Ore_ni_dake_Uzai_03_1080p.mp4':
  Metadata:
    major_brand     : isom
    minor_version   : 512
    compatible_brands: isomiso2avc1mp41
    encoder         : Lavf60.16.100
  Duration: 00:23:49.46, start: 0.000000, bitrate: 3851 kb/s
  Stream #1:0[0x1](und): Video: h264 (High) (avc1 / 0x31637661), yuv420p(tv, bt709, progressive), 1920x1080 [SAR 1:1 DAR 16:9], 3653 kb/s, 23.98 fps, 23.98 tbr, 90k tbn (default)
      Metadata:
        handler_name    : VideoHandler
        vendor_id       : [0][0][0][0]
  Stream #1:1[0x2](eng): Audio: aac (LC) (mp4a / 0x6134706D), 48000 Hz, stereo, fltp, 191 kb/s (default)
      Metadata:
        handler_name    : SoundHandler
        vendor_id       : [0][0][0][0]
Stream mapping:
  Stream #0:0 (hevc) -> settb:default
  Stream #1:0 (h264) -> settb:default
  psnr:default -> Stream #0:0 (wrapped_avframe)
  Stream #0:1 -> #0:1 (aac (native) -> pcm_s16le (native))
Output #0, null, to 'pipe:':
  Metadata:
    COMPATIBLE_BRANDS: isomiso2avc1mp41
    MAJOR_BRAND     : isom
    MINOR_VERSION   : 512
    encoder         : Lavf61.7.100
  Stream #0:0: Video: wrapped_avframe, yuv420p10le(tv, bt709, progressive), 1920x1080 [SAR 1:1 DAR 16:9], q=2-31, 200 kb/s, 23.98 fps, 23.98 tbn
      Metadata:
        encoder         : Lavc61.19.100 wrapped_avframe
  Stream #0:1(eng): Audio: pcm_s16le, 48000 Hz, stereo, s16, 1536 kb/s (default)
      Metadata:
        HANDLER_NAME    : SoundHandler
        VENDOR_ID       : [0][0][0][0]
        _STATISTICS_TAGS: BPS DURATION NUMBER_OF_FRAMES NUMBER_OF_BYTES
        BPS             : 191760
        DURATION        : 00:23:49.464000000
        NUMBER_OF_FRAMES: 67007
        NUMBER_OF_BYTES : 34264364
        _STATISTICS_WRITING_APP: mkvpropedit v94.0 ('Initiate') 64-bit
        _STATISTICS_WRITING_DATE_UTC: 2026-03-28 10:05:01
        encoder         : Lavc61.19.100 pcm_s16le
frame=  109 fps=0.0 q=-0.0 size=N/A time=00:00:04.54 bitrate=N/A speed=8.89x    frame=  250 fps=244 q=-0.0 size=N/A time=00:00:10.42 bitrate=N/A speed=10.2x    frame=  403 fps=263 q=-0.0 size=N/A time=00:00:16.80 bitrate=N/A speed=  11x    frame=  586 fps=285 q=-0.0 size=N/A time=00:00:24.44 bitrate=N/A speed=11.9x    frame=  757 fps=295 q=-0.0 size=N/A time=00:00:31.57 bitrate=N/A speed=12.3x    frame=  950 fps=307 q=-0.0 size=N/A time=00:00:39.62 bitrate=N/A speed=12.8x    frame= 1139 fps=316 q=-0.0 size=N/A time=00:00:47.50 bitrate=N/A speed=13.2x    frame= 1317 fps=320 q=-0.0 size=N/A time=00:00:54.92 bitrate=N/A speed=13.3x    frame= 1446 fps=312 q=-0.0 size=N/A time=00:01:00.31 bitrate=N/A speed=  13x    frame= 1618 fps=314 q=-0.0 size=N/A time=00:01:07.48 bitrate=N/A speed=13.1x    frame= 1773 fps=313 q=-0.0 size=N/A time=00:01:13.94 bitrate=N/A speed=  13x    frame= 1948 fps=315 q=-0.0 size=N/A time=00:01:21.24 bitrate=N/A speed=13.1x    frame= 2113 fps=316 q=-0.0 size=N/A time=00:01:28.12 bitrate=N/A speed=13.2x    frame= 2288 fps=317 q=-0.0 size=N/A time=00:01:35.42 bitrate=N/A speed=13.2x    frame= 2459 fps=318 q=-0.0 size=N/A time=00:01:42.56 bitrate=N/A speed=13.3x    frame= 2632 fps=319 q=-0.0 size=N/A time=00:01:49.77 bitrate=N/A speed=13.3x    frame= 2774 fps=317 q=-0.0 size=N/A time=00:01:55.69 bitrate=N/A speed=13.2x    frame= 2913 fps=314 q=-0.0 size=N/A time=00:02:01.49 bitrate=N/A speed=13.1x    frame= 3070 fps=313 q=-0.0 size=N/A time=00:02:08.04 bitrate=N/A speed=13.1x    frame= 3222 fps=313 q=-0.0 size=N/A time=00:02:14.38 bitrate=N/A speed=  13x    frame= 3366 fps=311 q=-0.0 size=N/A time=00:02:20.39 bitrate=N/A speed=  13x    frame= 3563 fps=314 q=-0.0 size=N/A time=00:02:28.60 bitrate=N/A speed=13.1x    frame= 3733 fps=315 q=-0.0 size=N/A time=00:02:35.69 bitrate=N/A speed=13.1x    frame= 3930 fps=318 q=-0.0 size=N/A time=00:02:43.91 bitrate=N/A speed=13.3x    frame= 4140 fps=321 q=-0.0 size=N/A time=00:02:52.67 bitrate=N/A speed=13.4x    frame= 4348 fps=324 q=-0.0 size=N/A time=00:03:01.34 bitrate=N/A speed=13.5x    frame= 4551 fps=327 q=-0.0 size=N/A time=00:03:09.81 bitrate=N/A speed=13.6x    frame= 4752 fps=329 q=-0.0 size=N/A time=00:03:18.19 bitrate=N/A speed=13.7x    frame= 4947 fps=331 q=-0.0 size=N/A time=00:03:26.33 bitrate=N/A speed=13.8x    frame= 5165 fps=334 q=-0.0 size=N/A time=00:03:35.42 bitrate=N/A speed=13.9x    frame= 5368 fps=336 q=-0.0 size=N/A time=00:03:43.89 bitrate=N/A speed=  14x    frame= 5568 fps=337 q=-0.0 size=N/A time=00:03:52.23 bitrate=N/A speed=14.1x    frame= 5769 fps=339 q=-0.0 size=N/A time=00:04:00.61 bitrate=N/A speed=14.1x    frame= 5972 fps=340 q=-0.0 size=N/A time=00:04:09.08 bitrate=N/A speed=14.2x    frame= 6179 fps=342 q=-0.0 size=N/A time=00:04:17.71 bitrate=N/A speed=14.3x    frame= 6376 fps=343 q=-0.0 size=N/A time=00:04:25.93 bitrate=N/A speed=14.3x    frame= 6559 fps=344 q=-0.0 size=N/A time=00:04:33.56 bitrate=N/A speed=14.3x    frame= 6741 fps=344 q=-0.0 size=N/A time=00:04:41.15 bitrate=N/A speed=14.3x    frame= 6940 fps=345 q=-0.0 size=N/A time=00:04:49.45 bitrate=N/A speed=14.4x    frame= 7143 fps=346 q=-0.0 size=N/A time=00:04:57.92 bitrate=N/A speed=14.4x    frame= 7346 fps=347 q=-0.0 size=N/A time=00:05:06.38 bitrate=N/A speed=14.5x    frame= 7537 fps=348 q=-0.0 size=N/A time=00:05:14.35 bitrate=N/A speed=14.5x    frame= 7730 fps=349 q=-0.0 size=N/A time=00:05:22.40 bitrate=N/A speed=14.5x    frame= 7924 fps=349 q=-0.0 size=N/A time=00:05:30.49 bitrate=N/A speed=14.6x    frame= 8125 fps=350 q=-0.0 size=N/A time=00:05:38.88 bitrate=N/A speed=14.6x    frame= 8328 fps=351 q=-0.0 size=N/A time=00:05:47.34 bitrate=N/A speed=14.6x    frame= 8532 fps=352 q=-0.0 size=N/A time=00:05:55.85 bitrate=N/A speed=14.7x    frame= 8732 fps=353 q=-0.0 size=N/A time=00:06:04.19 bitrate=N/A speed=14.7x    frame= 8936 fps=353 q=-0.0 size=N/A time=00:06:12.70 bitrate=N/A speed=14.7x    frame= 9140 fps=354 q=-0.0 size=N/A time=00:06:21.21 bitrate=N/A speed=14.8x    frame= 9317 fps=354 q=-0.0 size=N/A time=00:06:28.59 bitrate=N/A speed=14.8x    frame= 9513 fps=355 q=-0.0 size=N/A time=00:06:36.77 bitrate=N/A speed=14.8x    frame= 9725 fps=356 q=-0.0 size=N/A time=00:06:45.61 bitrate=N/A speed=14.8x    frame= 9932 fps=357 q=-0.0 size=N/A time=00:06:54.24 bitrate=N/A speed=14.9x    frame=10136 fps=357 q=-0.0 size=N/A time=00:07:02.75 bitrate=N/A speed=14.9x    frame=10335 fps=358 q=-0.0 size=N/A time=00:07:11.05 bitrate=N/A speed=14.9x    frame=10534 fps=358 q=-0.0 size=N/A time=00:07:19.35 bitrate=N/A speed=14.9x    frame=10743 fps=359 q=-0.0 size=N/A time=00:07:28.07 bitrate=N/A speed=  15x    frame=10931 fps=359 q=-0.0 size=N/A time=00:07:35.91 bitrate=N/A speed=  15x    frame=11112 fps=359 q=-0.0 size=N/A time=00:07:43.46 bitrate=N/A speed=  15x    frame=11314 fps=360 q=-0.0 size=N/A time=00:07:51.88 bitrate=N/A speed=  15x    frame=11503 fps=360 q=-0.0 size=N/A time=00:07:59.77 bitrate=N/A speed=  15x    frame=11705 fps=360 q=-0.0 size=N/A time=00:08:08.19 bitrate=N/A speed=  15x    frame=11903 fps=361 q=-0.0 size=N/A time=00:08:16.45 bitrate=N/A speed=  15x    frame=12097 fps=361 q=-0.0 size=N/A time=00:08:24.54 bitrate=N/A speed=15.1x    frame=12302 fps=361 q=-0.0 size=N/A time=00:08:33.09 bitrate=N/A speed=15.1x    frame=12490 fps=361 q=-0.0 size=N/A time=00:08:40.93 bitrate=N/A speed=15.1x    frame=12693 fps=362 q=-0.0 size=N/A time=00:08:49.40 bitrate=N/A speed=15.1x    frame=12884 fps=362 q=-0.0 size=N/A time=00:08:57.37 bitrate=N/A speed=15.1x    frame=13101 fps=363 q=-0.0 size=N/A time=00:09:06.42 bitrate=N/A speed=15.1x    frame=13291 fps=363 q=-0.0 size=N/A time=00:09:14.34 bitrate=N/A speed=15.1x    frame=13474 fps=363 q=-0.0 size=N/A time=00:09:21.97 bitrate=N/A speed=15.1x    frame=13685 fps=364 q=-0.0 size=N/A time=00:09:30.77 bitrate=N/A speed=15.2x    frame=13894 fps=364 q=-0.0 size=N/A time=00:09:39.49 bitrate=N/A speed=15.2x    frame=14091 fps=364 q=-0.0 size=N/A time=00:09:47.71 bitrate=N/A speed=15.2x    frame=14297 fps=365 q=-0.0 size=N/A time=00:09:56.30 bitrate=N/A speed=15.2x    frame=14502 fps=365 q=-0.0 size=N/A time=00:10:04.85 bitrate=N/A speed=15.2x    frame=14694 fps=365 q=-0.0 size=N/A time=00:10:12.86 bitrate=N/A speed=15.2x    frame=14891 fps=365 q=-0.0 size=N/A time=00:10:21.07 bitrate=N/A speed=15.2x    frame=15086 fps=366 q=-0.0 size=N/A time=00:10:29.21 bitrate=N/A speed=15.3x    frame=15286 fps=366 q=-0.0 size=N/A time=00:10:37.55 bitrate=N/A speed=15.3x    frame=15479 fps=366 q=-0.0 size=N/A time=00:10:45.60 bitrate=N/A speed=15.3x    frame=15669 fps=366 q=-0.0 size=N/A time=00:10:53.52 bitrate=N/A speed=15.3x    frame=15870 fps=366 q=-0.0 size=N/A time=00:11:01.91 bitrate=N/A speed=15.3x    frame=16068 fps=367 q=-0.0 size=N/A time=00:11:10.16 bitrate=N/A speed=15.3x    frame=16255 fps=366 q=-0.0 size=N/A time=00:11:17.96 bitrate=N/A speed=15.3x    frame=16453 fps=367 q=-0.0 size=N/A time=00:11:26.22 bitrate=N/A speed=15.3x    frame=16657 fps=367 q=-0.0 size=N/A time=00:11:34.73 bitrate=N/A speed=15.3x    frame=16858 fps=367 q=-0.0 size=N/A time=00:11:43.11 bitrate=N/A speed=15.3x    frame=17056 fps=367 q=-0.0 size=N/A time=00:11:51.37 bitrate=N/A speed=15.3x    frame=17253 fps=368 q=-0.0 size=N/A time=00:11:59.59 bitrate=N/A speed=15.3x    frame=17450 fps=368 q=-0.0 size=N/A time=00:12:07.81 bitrate=N/A speed=15.3x    frame=17654 fps=368 q=-0.0 size=N/A time=00:12:16.31 bitrate=N/A speed=15.4x    frame=17858 fps=368 q=-0.0 size=N/A time=00:12:24.82 bitrate=N/A speed=15.4x    frame=18056 fps=369 q=-0.0 size=N/A time=00:12:33.08 bitrate=N/A speed=15.4x    frame=18266 fps=369 q=-0.0 size=N/A time=00:12:41.84 bitrate=N/A speed=15.4x    frame=18461 fps=369 q=-0.0 size=N/A time=00:12:49.97 bitrate=N/A speed=15.4x    frame=18647 fps=369 q=-0.0 size=N/A time=00:12:57.73 bitrate=N/A speed=15.4x    frame=18828 fps=369 q=-0.0 size=N/A time=00:13:05.28 bitrate=N/A speed=15.4x    frame=19001 fps=368 q=-0.0 size=N/A time=00:13:12.50 bitrate=N/A speed=15.4x    frame=19160 fps=368 q=-0.0 size=N/A time=00:13:19.13 bitrate=N/A speed=15.3x    frame=19351 fps=368 q=-0.0 size=N/A time=00:13:27.09 bitrate=N/A speed=15.3x    frame=19544 fps=368 q=-0.0 size=N/A time=00:13:35.14 bitrate=N/A speed=15.3x    frame=19724 fps=368 q=-0.0 size=N/A time=00:13:42.65 bitrate=N/A speed=15.3x    frame=19918 fps=368 q=-0.0 size=N/A time=00:13:50.74 bitrate=N/A speed=15.3x    frame=20107 fps=368 q=-0.0 size=N/A time=00:13:58.62 bitrate=N/A speed=15.3x    frame=20314 fps=368 q=-0.0 size=N/A time=00:14:07.26 bitrate=N/A speed=15.4x    frame=20515 fps=368 q=-0.0 size=N/A time=00:14:15.64 bitrate=N/A speed=15.4x    frame=20687 fps=368 q=-0.0 size=N/A time=00:14:22.82 bitrate=N/A speed=15.3x    frame=20867 fps=368 q=-0.0 size=N/A time=00:14:30.32 bitrate=N/A speed=15.3x    frame=21060 fps=368 q=-0.0 size=N/A time=00:14:38.37 bitrate=N/A speed=15.3x    frame=21243 fps=368 q=-0.0 size=N/A time=00:14:46.01 bitrate=N/A speed=15.3x    frame=21410 fps=367 q=-0.0 size=N/A time=00:14:52.97 bitrate=N/A speed=15.3x    frame=21617 fps=368 q=-0.0 size=N/A time=00:15:01.60 bitrate=N/A speed=15.3x    frame=21799 fps=367 q=-0.0 size=N/A time=00:15:09.19 bitrate=N/A speed=15.3x    frame=21991 fps=368 q=-0.0 size=N/A time=00:15:17.20 bitrate=N/A speed=15.3x    frame=22181 fps=367 q=-0.0 size=N/A time=00:15:25.13 bitrate=N/A speed=15.3x    frame=22371 fps=368 q=-0.0 size=N/A time=00:15:33.05 bitrate=N/A speed=15.3x    frame=22557 fps=367 q=-0.0 size=N/A time=00:15:40.81 bitrate=N/A speed=15.3x    frame=22730 fps=367 q=-0.0 size=N/A time=00:15:48.03 bitrate=N/A speed=15.3x    frame=22898 fps=367 q=-0.0 size=N/A time=00:15:55.03 bitrate=N/A speed=15.3x    frame=23089 fps=367 q=-0.0 size=N/A time=00:16:03.00 bitrate=N/A speed=15.3x    frame=23286 fps=367 q=-0.0 size=N/A time=00:16:11.22 bitrate=N/A speed=15.3x    frame=23478 fps=367 q=-0.0 size=N/A time=00:16:19.22 bitrate=N/A speed=15.3x    frame=23661 fps=367 q=-0.0 size=N/A time=00:16:26.86 bitrate=N/A speed=15.3x    frame=23849 fps=367 q=-0.0 size=N/A time=00:16:34.70 bitrate=N/A speed=15.3x    frame=24048 fps=367 q=-0.0 size=N/A time=00:16:43.00 bitrate=N/A speed=15.3x    frame=24246 fps=367 q=-0.0 size=N/A time=00:16:51.26 bitrate=N/A speed=15.3x    frame=24450 fps=367 q=-0.0 size=N/A time=00:16:59.76 bitrate=N/A speed=15.3x    frame=24655 fps=368 q=-0.0 size=N/A time=00:17:08.31 bitrate=N/A speed=15.3x    frame=24857 fps=368 q=-0.0 size=N/A time=00:17:16.74 bitrate=N/A speed=15.3x    frame=25054 fps=368 q=-0.0 size=N/A time=00:17:24.96 bitrate=N/A speed=15.3x    frame=25255 fps=368 q=-0.0 size=N/A time=00:17:33.34 bitrate=N/A speed=15.4x    frame=25459 fps=368 q=-0.0 size=N/A time=00:17:41.85 bitrate=N/A speed=15.4x    frame=25653 fps=368 q=-0.0 size=N/A time=00:17:49.94 bitrate=N/A speed=15.4x    frame=25855 fps=369 q=-0.0 size=N/A time=00:17:58.36 bitrate=N/A speed=15.4x    frame=26048 fps=369 q=-0.0 size=N/A time=00:18:06.41 bitrate=N/A speed=15.4x    frame=26239 fps=369 q=-0.0 size=N/A time=00:18:14.38 bitrate=N/A speed=15.4x    frame=26411 fps=368 q=-0.0 size=N/A time=00:18:21.55 bitrate=N/A speed=15.4x    frame=26619 fps=369 q=-0.0 size=N/A time=00:18:30.23 bitrate=N/A speed=15.4x    frame=26815 fps=369 q=-0.0 size=N/A time=00:18:38.40 bitrate=N/A speed=15.4x    frame=27016 fps=369 q=-0.0 size=N/A time=00:18:46.79 bitrate=N/A speed=15.4x    frame=27219 fps=369 q=-0.0 size=N/A time=00:18:55.25 bitrate=N/A speed=15.4x    frame=27425 fps=369 q=-0.0 size=N/A time=00:19:03.85 bitrate=N/A speed=15.4x    frame=27614 fps=369 q=-0.0 size=N/A time=00:19:11.73 bitrate=N/A speed=15.4x    frame=27828 fps=369 q=-0.0 size=N/A time=00:19:20.65 bitrate=N/A speed=15.4x    frame=28029 fps=370 q=-0.0 size=N/A time=00:19:29.04 bitrate=N/A speed=15.4x    frame=28234 fps=370 q=-0.0 size=N/A time=00:19:37.59 bitrate=N/A speed=15.4x    frame=28442 fps=370 q=-0.0 size=N/A time=00:19:46.26 bitrate=N/A speed=15.4x    frame=28640 fps=370 q=-0.0 size=N/A time=00:19:54.52 bitrate=N/A speed=15.4x    frame=28839 fps=370 q=-0.0 size=N/A time=00:20:02.82 bitrate=N/A speed=15.4x    frame=29043 fps=370 q=-0.0 size=N/A time=00:20:11.33 bitrate=N/A speed=15.5x    frame=29243 fps=371 q=-0.0 size=N/A time=00:20:19.67 bitrate=N/A speed=15.5x    frame=29406 fps=370 q=-0.0 size=N/A time=00:20:26.47 bitrate=N/A speed=15.4x    frame=29601 fps=370 q=-0.0 size=N/A time=00:20:34.60 bitrate=N/A speed=15.4x    frame=29803 fps=370 q=-0.0 size=N/A time=00:20:43.03 bitrate=N/A speed=15.4x    frame=30018 fps=371 q=-0.0 size=N/A time=00:20:52.00 bitrate=N/A speed=15.5x    frame=30233 fps=371 q=-0.0 size=N/A time=00:21:00.96 bitrate=N/A speed=15.5x    frame=30437 fps=371 q=-0.0 size=N/A time=00:21:09.47 bitrate=N/A speed=15.5x    frame=30640 fps=371 q=-0.0 size=N/A time=00:21:17.94 bitrate=N/A speed=15.5x    frame=30842 fps=371 q=-0.0 size=N/A time=00:21:26.36 bitrate=N/A speed=15.5x    frame=31027 fps=371 q=-0.0 size=N/A time=00:21:34.08 bitrate=N/A speed=15.5x    frame=31225 fps=371 q=-0.0 size=N/A time=00:21:42.34 bitrate=N/A speed=15.5x    frame=31408 fps=371 q=-0.0 size=N/A time=00:21:49.97 bitrate=N/A speed=15.5x    frame=31600 fps=371 q=-0.0 size=N/A time=00:21:57.98 bitrate=N/A speed=15.5x    frame=31803 fps=371 q=-0.0 size=N/A time=00:22:06.45 bitrate=N/A speed=15.5x    frame=31991 fps=371 q=-0.0 size=N/A time=00:22:14.29 bitrate=N/A speed=15.5x    frame=32184 fps=371 q=-0.0 size=N/A time=00:22:22.34 bitrate=N/A speed=15.5x    frame=32371 fps=371 q=-0.0 size=N/A time=00:22:30.14 bitrate=N/A speed=15.5x    frame=32554 fps=371 q=-0.0 size=N/A time=00:22:37.77 bitrate=N/A speed=15.5x    frame=32745 fps=371 q=-0.0 size=N/A time=00:22:45.73 bitrate=N/A speed=15.5x    frame=32924 fps=371 q=-0.0 size=N/A time=00:22:53.20 bitrate=N/A speed=15.5x    frame=33094 fps=371 q=-0.0 size=N/A time=00:23:00.29 bitrate=N/A speed=15.5x    frame=33238 fps=370 q=-0.0 size=N/A time=00:23:06.30 bitrate=N/A speed=15.4x    frame=33436 fps=370 q=-0.0 size=N/A time=00:23:14.55 bitrate=N/A speed=15.4x    frame=33622 fps=370 q=-0.0 size=N/A time=00:23:22.31 bitrate=N/A speed=15.4x    frame=33825 fps=371 q=-0.0 size=N/A time=00:23:30.78 bitrate=N/A speed=15.5x    frame=34024 fps=371 q=-0.0 size=N/A time=00:23:39.08 bitrate=N/A speed=15.5x    frame=34214 fps=371 q=-0.0 size=N/A time=00:23:47.00 bitrate=N/A speed=15.5x    [Parsed_psnr_16 @ 000001e42044d8c0] PSNR y:48.535569 u:51.057312 v:50.414479 average:49.150096 min:37.690439 max:inf
[out#0/null @ 000001e41fc7ae00] video:14726KiB audio:268028KiB subtitle:0KiB other streams:0KiB global headers:0KiB muxing overhead: unknown
frame=34271 fps=371 q=-0.0 Lsize=N/A time=00:23:49.38 bitrate=N/A speed=15.5x    
